name Walk4.mot
datacolumns 19
datarows 27
range 1.37900000 1.40500000
endheader

                time	   L_ground_force_vx	   L_ground_force_vy	   L_ground_force_vz	   L_ground_force_px	   L_ground_force_py	   L_ground_force_pz	   R_ground_force_vx	   R_ground_force_vy	   R_ground_force_vz	   R_ground_force_px	   R_ground_force_py	   R_ground_force_pz	   L_ground_torque_x	   L_ground_torque_y	   L_ground_torque_z	   R_ground_torque_x	   R_ground_torque_y	   R_ground_torque_z	
          1.37900000	         45.26992519	        505.76872214	         17.39594166	         -0.08638946	          0.00000000	         -0.00752815	         -0.08451707	          0.72458389	          0.04663882	          0.00047538	          0.00000000	          0.00005630	          0.00000000	          0.61006222	          0.00000000	          0.00000000	          0.01180893	          0.00000000	
          1.38000000	         46.12368431	        508.15172236	         17.63550108	         -0.08633948	          0.00000000	         -0.00757255	         -0.08885934	          0.70628959	          0.04450205	          0.00042581	          0.00000000	          0.00004757	          0.00000000	          0.61725480	          0.00000000	          0.00000000	          0.01275457	          0.00000000	
          1.38100000	         46.98172005	        510.52830847	         17.87307974	         -0.08628730	          0.00000000	         -0.00761413	         -0.09323814	          0.68337837	          0.04198292	          0.00036987	          0.00000000	          0.00003782	          0.00000000	          0.62450249	          0.00000000	          0.00000000	          0.01373541	          0.00000000	
          1.38200000	         47.84392325	        512.89734677	         18.10833849	         -0.08623288	          0.00000000	         -0.00765283	         -0.09763878	          0.65551584	          0.03905632	          0.00030721	          0.00000000	          0.00002702	          0.00000000	          0.63179388	          0.00000000	          0.00000000	          0.01475067	          0.00000000	
          1.38300000	         48.71017849	        515.25768594	         18.34093233	         -0.08617620	          0.00000000	         -0.00768858	         -0.10204511	          0.62235696	          0.03569647	          0.00023746	          0.00000000	          0.00001510	          0.00000000	          0.63911728	          0.00000000	          0.00000000	          0.01579935	          0.00000000	
          1.38400000	         49.58036315	        517.60815726	         18.57051148	         -0.08611723	          0.00000000	         -0.00772135	         -0.10643945	          0.58354652	          0.03187698	          0.00016025	          0.00000000	          0.00000200	          0.00000000	          0.64646044	          0.00000000	          0.00000000	          0.01688024	          0.00000000	
          1.38500000	         50.45434702	        519.94757508	         18.79672266	         -0.08605594	          0.00000000	         -0.00775108	         -0.11080256	          0.53871961	          0.02757091	          0.00007520	          0.00000000	         -0.00001231	          0.00000000	          0.65381020	          0.00000000	          0.00000000	          0.01799184	          0.00000000	
          1.38600000	         51.33199271	        522.27473758	         19.01921003	         -0.08599231	          0.00000000	         -0.00777771	         -0.11511350	          0.48750230	          0.02275084	         -0.00001807	          0.00000000	         -0.00002791	          0.00000000	          0.66115229	          0.00000000	          0.00000000	          0.01913244	          0.00000000	
          1.38700000	         52.21315643	        524.58842797	         19.23761534	         -0.08592632	          0.00000000	         -0.00780120	         -0.11934963	          0.42951228	          0.01738890	         -0.00011993	          0.00000000	         -0.00004484	          0.00000000	          0.66847135	          0.00000000	          0.00000000	          0.02030002	          0.00000000	
          1.38800000	         53.09768857	        526.88741634	         19.45157750	         -0.08585795	          0.00000000	         -0.00782147	         -0.12348650	          0.36435969	          0.01145688	         -0.00023075	          0.00000000	         -0.00006316	          0.00000000	          0.67575138	          0.00000000	          0.00000000	          0.02149225	          0.00000000	
          1.38900000	         53.98543407	        529.17046188	         19.66073173	         -0.08578717	          0.00000000	         -0.00783848	         -0.12749780	          0.29164802	          0.00492632	         -0.00035093	          0.00000000	         -0.00008292	          0.00000000	          0.68297629	          0.00000000	          0.00000000	          0.02270652	          0.00000000	
          1.39000000	         54.87623235	        531.43631514	         19.86470872	         -0.08571398	          0.00000000	         -0.00785217	         -0.13135530	          0.21097514	         -0.00223143	         -0.00048082	          0.00000000	         -0.00010418	          0.00000000	          0.69013073	          0.00000000	          0.00000000	          0.02393984	          0.00000000	
          1.39100000	         55.76991679	        533.68371982	         20.06313442	         -0.08563835	          0.00000000	         -0.00786247	         -0.13502877	          0.12193441	         -0.01004511	         -0.00062079	          0.00000000	         -0.00012697	          0.00000000	          0.69720062	          0.00000000	          0.00000000	          0.02518890	          0.00000000	
          1.39200000	         56.66631399	        535.91141417	         20.25563072	         -0.08556027	          0.00000000	         -0.00786934	         -0.13848594	          0.02411600	         -0.01854339	         -0.00077121	          0.00000000	         -0.00015137	          0.00000000	          0.70417356	          0.00000000	          0.00000000	          0.02645000	          0.00000000	
          1.39300000	         57.56524309	        538.11813197	         20.44181745	         -0.08547971	          0.00000000	         -0.00787274	         -0.14169243	         -0.08289180	         -0.02775479	         -0.00093242	          0.00000000	         -0.00017740	          0.00000000	          0.71103879	          0.00000000	          0.00000000	          0.02771905	          0.00000000	
          1.39400000	         58.46651577	        540.30260308	         20.62131522	         -0.08539668	          0.00000000	         -0.00787264	         -0.14461171	         -0.19950096	         -0.03770753	         -0.00110476	          0.00000000	         -0.00020512	          0.00000000	          0.71778694	          0.00000000	          0.00000000	          0.02899155	          0.00000000	
          1.39500000	         59.36993719	        542.46355325	         20.79374844	         -0.08531118	          0.00000000	         -0.00786901	         -0.14720503	         -0.32612211	         -0.04842940	         -0.00128855	          0.00000000	         -0.00023457	          0.00000000	          0.72440946	          0.00000000	          0.00000000	          0.03026256	          0.00000000	
          1.39600000	         60.27530806	        544.59970308	         20.95874746	         -0.08522320	          0.00000000	         -0.00786183	         -0.14943139	         -0.46316268	         -0.05994760	         -0.00148410	          0.00000000	         -0.00026579	          0.00000000	          0.73089795	          0.00000000	          0.00000000	          0.03152671	          0.00000000	
          1.39700000	         61.18242713	        546.70976650	         21.11594954	         -0.08513274	          0.00000000	         -0.00785108	         -0.15124749	         -0.61102493	         -0.07228854	         -0.00169170	          0.00000000	         -0.00029881	          0.00000000	          0.73724370	          0.00000000	          0.00000000	          0.03277812	          0.00000000	
          1.39800000	         62.09109339	        548.79244918	         21.26499863	         -0.08503982	          0.00000000	         -0.00783676	         -0.15260772	         -0.77010381	         -0.08547773	         -0.00191159	          0.00000000	         -0.00033367	          0.00000000	          0.74343739	          0.00000000	          0.00000000	          0.03401044	          0.00000000	
          1.39900000	         63.00110723	        550.84644745	         21.40554443	         -0.08494445	          0.00000000	         -0.00781886	         -0.15346410	         -0.94078464	         -0.09953950	         -0.00214403	          0.00000000	         -0.00037039	          0.00000000	          0.74946930	          0.00000000	          0.00000000	          0.03521683	          0.00000000	
          1.40000000	         63.91227034	        552.87044786	         21.53724151	         -0.08484663	          0.00000000	         -0.00779736	         -0.15376626	         -1.12344064	         -0.11449687	         -0.00238921	          0.00000000	         -0.00040899	          0.00000000	          0.75532978	          0.00000000	          0.00000000	          0.03638987	          0.00000000	
          1.40100000	         64.82438464	        554.86312740	         21.65974893	         -0.08474636	          0.00000000	         -0.00777228	         -0.15346145	         -1.31843024	         -0.13037130	         -0.00264730	          0.00000000	         -0.00044948	          0.00000000	          0.76100993	          0.00000000	          0.00000000	          0.03752163	          0.00000000	
          1.40200000	         65.73725074	        556.82315432	         21.77273072	         -0.08464365	          0.00000000	         -0.00774363	         -0.15249454	         -1.52609427	         -0.14718244	         -0.00291845	          0.00000000	         -0.00049189	          0.00000000	          0.76650227	          0.00000000	          0.00000000	          0.03860360	          0.00000000	
          1.40300000	         66.65066674	        558.74918913	         21.87585732	         -0.08453852	          0.00000000	         -0.00771141	         -0.15080800	         -1.74675285	         -0.16494790	         -0.00320274	          0.00000000	         -0.00053620	          0.00000000	          0.77180108	          0.00000000	          0.00000000	          0.03962668	          0.00000000	
          1.40400000	         67.56442795	        560.63988535	         21.96880749	         -0.08443095	          0.00000000	         -0.00767566	         -0.14834190	         -1.98070221	         -0.18368300	         -0.00350022	          0.00000000	         -0.00058241	          0.00000000	          0.77690229	          0.00000000	          0.00000000	          0.04058118	          0.00000000	
          1.40500000	         68.47832769	        562.49388964	         22.05127006	         -0.08432097	          0.00000000	         -0.00763639	         -0.14503401	         -2.22821120	         -0.20340047	         -0.00381089	          0.00000000	         -0.00063052	          0.00000000	          0.78180297	          0.00000000	          0.00000000	          0.04145677	          0.00000000	
